<svg width="23" height="13" viewBox="0 0 23 13" fill="none" xmlns="http://www.w3.org/2000/svg">
<rect width="23" height="13" fill="#1E1E1E"/>
<g id="Landing Page Design">
<rect width="1440" height="3811" transform="translate(-910 -2320)" fill="white"/>
<g id="Rectangle 11">
<mask id="path-1-inside-1_101_682" fill="white">
<path d="M-910 -797C-910 -845.601 -870.601 -885 -822 -885H442C490.601 -885 530 -845.601 530 -797V1323H-910V-797Z"/>
</mask>
<path d="M-910 -797C-910 -845.601 -870.601 -885 -822 -885H442C490.601 -885 530 -845.601 530 -797V1323H-910V-797Z" fill="#F7F8F8"/>
<path d="M-910 -797C-910 -846.706 -869.706 -887 -820 -887H440C489.706 -887 530 -846.706 530 -797C530 -844.496 490.601 -883 442 -883H-822C-870.601 -883 -910 -844.496 -910 -797ZM530 1323H-910H530ZM-910 1323V-885V1323ZM530 -885V1323V-885Z" fill="#1DD100" mask="url(#path-1-inside-1_101_682)"/>
</g>
<rect id="Rectangle 8" width="1170" height="1056" rx="24" transform="matrix(1 0 0 -1 -775 914)" fill="white"/>
<g id="Group 117">
<rect id="Rectangle 13" x="-70" y="-34" width="433" height="335" rx="12" fill="#F7F8F8"/>
<g id="Group 90">
</g>
</g>
<g id="Group 3601">
<g id="Group 3600">
<rect id="Rectangle 360" width="23" height="13" rx="5" fill="#1DD100"/>
</g>
<path id="2" d="M7.81676 11V9.67045L10.9233 6.79403C11.1875 6.53835 11.4091 6.30824 11.5881 6.10369C11.7699 5.89915 11.9077 5.69886 12.0014 5.50284C12.0952 5.30398 12.142 5.08949 12.142 4.85938C12.142 4.60369 12.0838 4.38352 11.9673 4.19886C11.8509 4.01136 11.6918 3.8679 11.4901 3.76847C11.2884 3.66619 11.0597 3.61506 10.804 3.61506C10.5369 3.61506 10.304 3.66903 10.1051 3.77699C9.90625 3.88494 9.75284 4.03977 9.64489 4.24148C9.53693 4.44318 9.48295 4.68324 9.48295 4.96165H7.73153C7.73153 4.39062 7.8608 3.89489 8.11932 3.47443C8.37784 3.05398 8.74006 2.72869 9.20597 2.49858C9.67188 2.26847 10.2088 2.15341 10.8168 2.15341C11.4418 2.15341 11.9858 2.2642 12.4489 2.4858C12.9148 2.70455 13.277 3.00852 13.5355 3.39773C13.794 3.78693 13.9233 4.23295 13.9233 4.7358C13.9233 5.06534 13.858 5.39062 13.7273 5.71165C13.5994 6.03267 13.3707 6.3892 13.0412 6.78125C12.7116 7.17045 12.2472 7.63778 11.6477 8.18324L10.3736 9.43182V9.49148H14.0384V11H7.81676Z" fill="white"/>
</g>
</g>
</svg>
